# xmcd CD database file
# Copyright (C) 1993-1998 Ti Kan
# 
# Track frame offsets:
#     150
#     11045
#     31677
#     50222
#     66273
#     93936
#     104107
#     128713
#     158792
#     173371
#     186516
#     205579
#     227566
#     252451
#     265183
#     277948
#     293423
# 
# Disc length: 4065 seconds
# 
# Revision: 1
# Processed by: cddbd v1.4b41PL1 Copyright (c) Steve Scherf et al.
# Submitted via: DiscPlay 4.0.4
# 
DISCID=e90fdf11
DTITLE=Various Artist - The Rhoads to Blues
DYEAR=1900
DGENRE=
TTITLE0=Break o' Day
TTITLE1=Instrumental
TTITLE2=Instrumental
TTITLE3=Come On Home
TTITLE4=Blues is All Around Me
TTITLE5=Instrumental
TTITLE6=Thrill is Gone
TTITLE7=When a Guitar Sings the Blues
TTITLE8=Blues Power
TTITLE9=Going Down to the Crossroads
TTITLE10=She Caught the Katy
TTITLE11=Leavin' Trunk
TTITLE12=Honkey Tonk parts 1 and 2
TTITLE13=Boogie in My Bones
TTITLE14=Mr. Charle's Blues
TTITLE15=Have Mercy
TTITLE16=Got the Blues
EXTD=
EXTT0=
EXTT1=
EXTT2=
EXTT3=
EXTT4=
EXTT5=
EXTT6=
EXTT7=
EXTT8=
EXTT9=
EXTT10=
EXTT11=
EXTT12=
EXTT13=
EXTT14=
EXTT15=
EXTT16=
PLAYORDER=
